<svg width="150" height="150" xmlns="http://www.w3.org/2000/svg" xmlns:xlink="http://www.w3.org/1999/xlink" overflow="hidden"><defs><filter id="fx0" x="-10%" y="-10%" width="120%" height="120%" filterUnits="userSpaceOnUse" primitiveUnits="userSpaceOnUse"><feComponentTransfer color-interpolation-filters="sRGB"><feFuncR type="discrete" tableValues="0 0"/><feFuncG type="discrete" tableValues="0 0"/><feFuncB type="discrete" tableValues="0 0"/><feFuncA type="linear" slope="0.4" intercept="0"/></feComponentTransfer><feGaussianBlur stdDeviation="1.77778 1.77778"/></filter><clipPath id="clip1"><rect x="509" y="214" width="150" height="150"/></clipPath><clipPath id="clip2"><rect x="-2" y="-2" width="155" height="155"/></clipPath><clipPath id="clip3"><rect x="0" y="0" width="152" height="152"/></clipPath></defs><g clip-path="url(#clip1)" transform="translate(-509 -214)"><g clip-path="url(#clip2)" filter="url(#fx0)" transform="translate(508 212)"><g clip-path="url(#clip3)"><path d="M2.12132-2.12132 121.956 117.713 117.713 121.956-2.12132 2.12132ZM-6.36396 6.36396C-9.87868 2.84924-9.87868-2.84924-6.36396-6.36396-2.84924-9.87868 2.84924-9.87868 6.36396-6.36396 9.87868-2.84924 9.87868 2.84924 6.36396 6.36396 2.84924 9.87868-2.84924 9.87868-6.36396 6.36396ZM126.199 113.471C129.713 116.985 129.713 122.684 126.199 126.199 122.684 129.713 116.985 129.713 113.471 126.199 109.956 122.684 109.956 116.985 113.471 113.471 116.985 109.956 122.684 109.956 126.199 113.471Z" fill="#7F7F7F" transform="matrix(1 0 0 -1 16 135.835)"/></g></g><path d="M2.12132-2.12132 121.956 117.713 117.713 121.956-2.12132 2.12132ZM-6.36396 6.36396C-9.87868 2.84924-9.87868-2.84924-6.36396-6.36396-2.84924-9.87868 2.84924-9.87868 6.36396-6.36396 9.87868-2.84924 9.87868 2.84924 6.36396 6.36396 2.84924 9.87868-2.84924 9.87868-6.36396 6.36396ZM126.199 113.471C129.713 116.985 129.713 122.684 126.199 126.199 122.684 129.713 116.985 129.713 113.471 126.199 109.956 122.684 109.956 116.985 113.471 113.471 116.985 109.956 122.684 109.956 126.199 113.471Z" fill="#7F7F7F" transform="matrix(1 0 0 -1 524 343.835)"/></g></svg>